<!-- 
  OR Nurse Circulator Checklist — Anatomical Body Diagrams
  Posterior (Back) View
  Professional medical illustration style for surgical site marking documentation
  Public Domain / CC0 — Use freely for medical documentation
-->
<svg viewBox="0 0 240 400" xmlns="http://www.w3.org/2000/svg" id="posterior-body">
  <!-- Skin palette: #F5E6D3 fill, #E8D5C4 shadow, #C4A882 mid, #8B6914 outline -->

  <!-- HEAD — posterior (occiput view) -->
  <ellipse cx="120" cy="30" rx="30" ry="32" fill="#F5E6D3" stroke="#8B6914" stroke-width="1.8"/>
  <!-- Occipital protuberance hint -->
  <path d="M108 18 Q114 12 120 12 Q126 12 132 18" fill="none" stroke="#C4A882" stroke-width="1"/>
  <!-- Nuchal ligament line -->
  <path d="M95 42 Q100 55 108 62" fill="none" stroke="#C4A882" stroke-width="0.8" stroke-dasharray="2,2"/>
  <path d="M145 42 Q140 55 132 62" fill="none" stroke="#C4A882" stroke-width="0.8" stroke-dasharray="2,2"/>
  <!-- External occipital protuberance -->
  <circle cx="120" cy="16" r="3" fill="#E8D5C4" stroke="#8B6914" stroke-width="0.8"/>
  <!-- Ears posterior -->
  <ellipse cx="89" cy="46" rx="6" ry="9" fill="#F5E6D3" stroke="#8B6914" stroke-width="1.2"/>
  <ellipse cx="151" cy="46" rx="6" ry="9" fill="#F5E6D3" stroke="#8B6914" stroke-width="1.2"/>
  <!-- Mastoid processes -->
  <circle cx="89" cy="52" r="3" fill="#E8D5C4" stroke="#8B6914" stroke-width="0.8"/>
  <circle cx="151" cy="52" r="3" fill="#E8D5C4" stroke="#8B6914" stroke-width="0.8"/>
  <!-- Neck posterior -->
  <path d="M104 58 L104 94 Q106 98 120 98 Q134 98 136 94 L136 58" fill="#F5E6D3" stroke="#8B6914" stroke-width="1.5"/>
  <!-- Trapezius ridge -->
  <path d="M104 68 Q112 64 120 64 Q128 64 136 68" fill="none" stroke="#C4A882" stroke-width="0.8"/>

  <!-- SPINE / BACK OVERVIEW -->
  <!-- Spinous processes as dots along midline -->
  <!-- C7 prominent -->
  <circle cx="120" cy="80" r="2" fill="#8B6914"/>
  <!-- Thoracic spine indicators (T1-T12) -->
  <circle cx="120" cy="92" r="1.5" fill="#C4A882"/>
  <circle cx="120" cy="104" r="1.5" fill="#C4A882"/>
  <circle cx="120" cy="116" r="1.5" fill="#C4A882"/>
  <circle cx="120" cy="128" r="1.5" fill="#C4A882"/>
  <circle cx="120" cy="140" r="1.5" fill="#C4A882"/>
  <circle cx="120" cy="152" r="1.5" fill="#C4A882"/>
  <!-- Lumbar spine indicators (L1-L5) -->
  <circle cx="120" cy="164" r="1.5" fill="#C4A882"/>
  <circle cx="120" cy="176" r="1.5" fill="#C4A882"/>
  <circle cx="120" cy="188" r="1.5" fill="#C4A882"/>
  <circle cx="120" cy="200" r="1.5" fill="#C4A882"/>
  <circle cx="120" cy="212" r="1.5" fill="#C4A882"/>
  <!-- Sacrum / Coccyx -->
  <circle cx="120" cy="222" r="1.5" fill="#C4A882"/>

  <!-- SPINE LINE -->
  <line x1="120" y1="16" x2="120" y2="232" stroke="#8B6914" stroke-width="1.5"/>
  <!-- Spinous process lines connecting to surface -->
  <line x1="117" y1="80" x2="113" y2="82" stroke="#C4A882" stroke-width="0.7"/>
  <line x1="123" y1="80" x2="127" y2="82" stroke="#C4A882" stroke-width="0.7"/>

  <!-- SCAPULA — LEFT (viewer's left) -->
  <!-- Scapula body posterior -->
  <path d="M72 95 Q64 100 62 112 Q60 126 65 136 Q72 142 82 138 Q90 132 88 120 Q86 106 76 98 Z" fill="#E8D5C4" stroke="#8B6914" stroke-width="1.5"/>
  <!-- Scapula spine -->
  <path d="M72 98 Q78 94 84 96" fill="none" stroke="#8B6914" stroke-width="1.2"/>
  <!-- Scapula spine continuing to acromion -->
  <path d="M72 98 Q66 94 60 96 Q56 100 56 106" fill="none" stroke="#8B6914" stroke-width="1.2"/>
  <!-- Acromion process -->
  <path d="M56 100 Q50 98 46 102 Q44 108 48 112 Q54 114 60 110" fill="#E8D5C4" stroke="#8B6914" stroke-width="1.2"/>
  <!-- Coracoid process hint -->
  <circle cx="62" cy="106" r="3" fill="#E8D5C4" stroke="#8B6914" stroke-width="1"/>
  <!-- Scapula medial border -->
  <path d="M76 98 Q74 110 72 125 Q70 135 72 140" fill="none" stroke="#8B6914" stroke-width="1"/>
  <!-- Scapula lateral border -->
  <path d="M88 120 Q85 130 82 138" fill="none" stroke="#8B6914" stroke-width="1"/>
  <!-- Inferior angle -->
  <circle cx="74" cy="140" r="3" fill="#D4B896" stroke="#8B6914" stroke-width="1"/>
  <!-- Left scapula label -->
  <text x="58" y="122" text-anchor="middle" font-size="6" fill="#8B6914" font-family="sans-serif" font-weight="700">Scapula</text>

  <!-- SCAPULA — RIGHT (viewer's right) -->
  <path d="M168 95 Q176 100 178 112 Q180 126 175 136 Q168 142 158 138 Q150 132 152 120 Q154 106 164 98 Z" fill="#E8D5C4" stroke="#8B6914" stroke-width="1.5"/>
  <path d="M168 98 Q162 94 156 96" fill="none" stroke="#8B6914" stroke-width="1.2"/>
  <path d="M168 98 Q174 94 180 96 Q184 100 184 106" fill="none" stroke="#8B6914" stroke-width="1.2"/>
  <path d="M184 100 Q190 98 194 102 Q196 108 192 112 Q186 114 180 110" fill="#E8D5C4" stroke="#8B6914" stroke-width="1.2"/>
  <circle cx="178" cy="106" r="3" fill="#E8D5C4" stroke="#8B6914" stroke-width="1"/>
  <path d="M164 98 Q166 110 168 125 Q170 135 168 140" fill="none" stroke="#8B6914" stroke-width="1"/>
  <path d="M152 120 Q155 130 158 138" fill="none" stroke="#8B6914" stroke-width="1"/>
  <circle cx="166" cy="140" r="3" fill="#D4B896" stroke="#8B6914" stroke-width="1"/>
  <text x="182" y="122" text-anchor="middle" font-size="6" fill="#8B6914" font-family="sans-serif" font-weight="700">Scapula</text>

  <!-- THORAX / BACK POSTERIOR -->
  <!-- Back outline -->
  <path d="M58 98 Q52 105 52 130 Q52 165 62 195 Q72 215 100 220 Q110 220 113 210" fill="#F5E6D3" stroke="#8B6914" stroke-width="1.5"/>
  <path d="M182 98 Q188 105 188 130 Q188 165 178 195 Q168 215 140 220 Q130 220 127 210" fill="#F5E6D3" stroke="#8B6914" stroke-width="1.5"/>
  <!-- Rib cage posterior (faint arches) -->
  <path d="M100 108 Q84 112 72 122 Q64 130 64 140 Q66 148 74 150" fill="none" stroke="#C4A882" stroke-width="0.9" stroke-dasharray="2,2"/>
  <path d="M100 120 Q84 125 74 136 Q66 144 66 154 Q68 162 76 164" fill="none" stroke="#C4A882" stroke-width="0.9" stroke-dasharray="2,2"/>
  <path d="M100 132 Q86 138 78 148 Q70 158 70 168 Q72 176 80 178" fill="none" stroke="#C4A882" stroke-width="0.9" stroke-dasharray="2,2"/>
  <path d="M140 108 Q156 112 168 122 Q176 130 176 140 Q174 148 166 150" fill="none" stroke="#C4A882" stroke-width="0.9" stroke-dasharray="2,2"/>
  <path d="M140 120 Q156 125 166 136 Q174 144 174 154 Q172 162 164 164" fill="none" stroke="#C4A882" stroke-width="0.9" stroke-dasharray="2,2"/>
  <path d="M140 132 Q154 138 162 148 Q170 158 170 168 Q168 176 160 178" fill="none" stroke="#C4A882" stroke-width="0.9" stroke-dasharray="2,2"/>
  <!-- Thoracic region label -->
  <text x="88" y="148" text-anchor="middle" font-size="6.5" fill="#1565C0" font-family="sans-serif" font-weight="700">THORAX</text>
  <text x="152" y="148" text-anchor="middle" font-size="6.5" fill="#1565C0" font-family="sans-serif" font-weight="700">THORAX</text>

  <!-- LUMBAR AND SACRAL REGION -->
  <!-- Paravertebral muscles hint -->
  <path d="M107 158 Q104 180 106 205" fill="none" stroke="#D4B896" stroke-width="1" stroke-dasharray="2,2"/>
  <path d="M133 158 Q136 180 134 205" fill="none" stroke="#D4B896" stroke-width="1" stroke-dasharray="2,2"/>
  <!-- Lumbar region label -->
  <text x="120" y="182" text-anchor="middle" font-size="6.5" fill="#1565C0" font-family="sans-serif" font-weight="700">LUMBAR</text>
  <!-- Sacral region -->
  <text x="120" y="218" text-anchor="middle" font-size="6.5" fill="#1565C0" font-family="sans-serif" font-weight="700">SACRAL</text>

  <!-- GLUTEAL REGION -->
  <!-- Iliac crest posterior -->
  <path d="M62 195 Q55 200 52 212 Q50 225 58 235 Q70 242 90 242 Q105 240 113 230" fill="#F5E6D3" stroke="#8B6914" stroke-width="1.5"/>
  <path d="M178 195 Q185 200 188 212 Q190 225 182 235 Q170 242 150 242 Q135 240 127 230" fill="#F5E6D3" stroke="#8B6914" stroke-width="1.5"/>
  <!-- Gluteal cleft -->
  <path d="M120 222 Q118 230 116 238 Q114 246 118 250 Q122 252 126 250 Q128 246 126 238 Q124 230 120 222" fill="#F5E6D3" stroke="#8B6914" stroke-width="1.2"/>
  <!-- Gluteal muscle outline left -->
  <path d="M68 222 Q64 230 62 240 Q65 252 78 256 Q92 256 100 248 Q105 240 103 228 Q100 220 92 220 Q80 220 68 222 Z" fill="#E8D5C4" stroke="#8B6914" stroke-width="1.2"/>
  <!-- Gluteal muscle outline right -->
  <path d="M172 222 Q176 230 178 240 Q175 252 162 256 Q148 256 140 248 Q135 240 137 228 Q140 220 148 220 Q160 220 172 222 Z" fill="#E8D5C4" stroke="#8B6914" stroke-width="1.2"/>
  <!-- PSIS landmarks -->
  <circle cx="70" cy="218" r="2.5" fill="#D4B896" stroke="#8B6914" stroke-width="0.8"/>
  <circle cx="170" cy="218" r="2.5" fill="#D4B896" stroke="#8B6914" stroke-width="0.8"/>
  <!-- Greater trochanter left -->
  <circle cx="80" cy="258" r="4" fill="#E8D5C4" stroke="#8B6914" stroke-width="1"/>
  <!-- Greater trochanter right -->
  <circle cx="160" cy="258" r="4" fill="#E8D5C4" stroke="#8B6914" stroke-width="1"/>
  <!-- Gluteal region label -->
  <text x="78" y="240" text-anchor="middle" font-size="6" fill="#1565C0" font-family="sans-serif" font-weight="700">GLUT L</text>
  <text x="162" y="240" text-anchor="middle" font-size="6" fill="#1565C0" font-family="sans-serif" font-weight="700">GLUT R</text>

  <!-- LEFT ARM — posterior -->
  <!-- Shoulder -->
  <circle cx="50" cy="102" r="7" fill="#F5E6D3" stroke="#8B6914" stroke-width="1.2"/>
  <!-- Trapezius -->
  <path d="M50 95 Q46 90 44 84 Q42 78 44 72 Q48 68 52 72 Q58 76 58 84" fill="#E8D5C4" stroke="#8B6914" stroke-width="1"/>
  <!-- Deltoid posterior -->
  <path d="M50 102 Q42 105 38 116 Q36 128 40 140 Q44 148 50 146 Q56 142 56 130" fill="#F5E6D3" stroke="#8B6914" stroke-width="1.5"/>
  <!-- Upper arm posterior -->
  <path d="M38 140 Q32 158 30 180 Q29 202 34 212 Q40 218 46 212 L50 180" fill="#F5E6D3" stroke="#8B6914" stroke-width="1.5"/>
  <!-- Elbow -->
  <circle cx="40" cy="214" r="6" fill="#F5E6D3" stroke="#8B6914" stroke-width="1.2"/>
  <!-- Olecranon process -->
  <circle cx="40" cy="210" r="4" fill="#D4B896" stroke="#8B6914" stroke-width="1"/>
  <!-- Forearm posterior -->
  <path d="M40 216 Q34 234 32 255 Q31 268 36 276 Q42 280 48 276 L46 250" fill="#F5E6D3" stroke="#8B6914" stroke-width="1.5"/>
  <!-- Wrist -->
  <path d="M36 276 Q34 284 40 288 Q46 290 50 284 L50 278" fill="#F5E6D3" stroke="#8B6914" stroke-width="1.2"/>
  <!-- Hand dorsum -->
  <path d="M36 282 Q32 292 34 302 Q38 312 46 312 Q54 310 56 300 Q58 290 54 280 Q48 276 42 278 Q36 280 36 282 Z" fill="#F5E6D3" stroke="#8B6914" stroke-width="1.5"/>
  <!-- Finger knuckles -->
  <path d="M38 292 Q42 296 46 292" fill="none" stroke="#C4A882" stroke-width="0.8"/>
  <path d="M36 298 Q40 302 44 298" fill="none" stroke="#C4A882" stroke-width="0.8"/>
  <!-- Left arm label -->
  <text x="22" y="165" text-anchor="middle" font-size="6" fill="#8B6914" font-family="sans-serif" font-weight="700">L ARM</text>
  <text x="22" y="270" text-anchor="middle" font-size="6" fill="#8B6914" font-family="sans-serif" font-weight="700">L HAND</text>

  <!-- RIGHT ARM — posterior -->
  <circle cx="190" cy="102" r="7" fill="#F5E6D3" stroke="#8B6914" stroke-width="1.2"/>
  <path d="M190 95 Q194 90 196 84 Q198 78 196 72 Q192 68 188 72 Q182 76 182 84" fill="#E8D5C4" stroke="#8B6914" stroke-width="1"/>
  <path d="M190 102 Q198 105 202 116 Q204 128 200 140 Q196 148 190 146 Q184 142 184 130" fill="#F5E6D3" stroke="#8B6914" stroke-width="1.5"/>
  <path d="M202 140 Q208 158 210 180 Q211 202 206 212 Q200 218 194 212 L190 180" fill="#F5E6D3" stroke="#8B6914" stroke-width="1.5"/>
  <circle cx="200" cy="214" r="6" fill="#F5E6D3" stroke="#8B6914" stroke-width="1.2"/>
  <circle cx="200" cy="210" r="4" fill="#D4B896" stroke="#8B6914" stroke-width="1"/>
  <path d="M200 216 Q206 234 208 255 Q209 268 204 276 Q198 280 192 276 L194 250" fill="#F5E6D3" stroke="#8B6914" stroke-width="1.5"/>
  <path d="M204 276 Q206 284 200 288 Q194 290 190 284 L190 278" fill="#F5E6D3" stroke="#8B6914" stroke-width="1.2"/>
  <path d="M204 282 Q208 292 206 302 Q202 312 194 312 Q186 310 184 300 Q182 290 186 280 Q192 276 198 278 Q204 280 204 282 Z" fill="#F5E6D3" stroke="#8B6914" stroke-width="1.5"/>
  <path d="M202 292 Q198 296 194 292" fill="none" stroke="#C4A882" stroke-width="0.8"/>
  <path d="M204 298 Q200 302 196 298" fill="none" stroke="#C4A882" stroke-width="0.8"/>
  <text x="218" y="165" text-anchor="middle" font-size="6" fill="#8B6914" font-family="sans-serif" font-weight="700">R ARM</text>
  <text x="218" y="270" text-anchor="middle" font-size="6" fill="#8B6914" font-family="sans-serif" font-weight="700">R HAND</text>

  <!-- LEFT LEG — posterior -->
  <!-- Thigh posterior — hamstring mass -->
  <path d="M80 258 Q70 272 66 298 Q64 325 68 345 Q74 355 86 355 L112 355" fill="#F5E6D3" stroke="#8B6914" stroke-width="1.5"/>
  <!-- Hamstring midline -->
  <line x1="92" y1="265" x2="90" y2="355" stroke="#D4B896" stroke-width="0.8" stroke-dasharray="3,2"/>
  <!-- Popliteal fossa -->
  <path d="M72 348 Q68 355 72 360 Q80 364 90 362 Q98 358 96 350" fill="#F5E6D3" stroke="#8B6914" stroke-width="1.2"/>
  <!-- Knee posterior — hamstrings -->
  <path d="M68 345 Q62 355 66 362 Q74 368 84 368 Q94 368 100 362 Q102 355 96 345" fill="#F5E6D3" stroke="#8B6914" stroke-width="1.5"/>
  <!-- Popliteal crease -->
  <path d="M75 352 Q84 356 94 352" fill="none" stroke="#C4A882" stroke-width="0.8"/>
  <!-- Lower leg posterior — calf -->
  <path d="M68 360 Q60 378 58 400 Q57 415 64 422 Q72 428 82 425 L100 425" fill="#F5E6D3" stroke="#8B6914" stroke-width="1.5"/>
  <!-- Gastrocnemius midline -->
  <line x1="82" y1="365" x2="80" y2="425" stroke="#D4B896" stroke-width="0.8" stroke-dasharray="3,2"/>
  <!-- Achilles tendon -->
  <path d="M74 380 Q76 395 80 410 Q84 420 88 425" fill="none" stroke="#C4A882" stroke-width="1.2"/>
  <!-- Ankle posterior -->
  <path d="M62 420 Q58 428 64 434 Q72 438 80 436 Q86 432 84 424" fill="#F5E6D3" stroke="#8B6914" stroke-width="1.5"/>
  <!-- Heel -->
  <path d="M60 428 Q56 436 60 442 Q68 446 76 442 Q80 438 78 430" fill="#F5E6D3" stroke="#8B6914" stroke-width="1.5"/>
  <!-- Plantar surface hint -->
  <path d="M60 440 Q66 450 80 450 Q94 448 100 440 Q102 432 96 430" fill="#F5E6D3" stroke="#8B6914" stroke-width="1.2"/>
  <!-- Left leg labels -->
  <text x="46" y="295" text-anchor="middle" font-size="6" fill="#8B6914" font-family="sans-serif" font-weight="700">L THIGH</text>
  <text x="46" y="375" text-anchor="middle" font-size="6" fill="#8B6914" font-family="sans-serif" font-weight="700">L CALF</text>
  <text x="50" y="430" text-anchor="middle" font-size="6" fill="#8B6914" font-family="sans-serif" font-weight="700">L HEEL</text>

  <!-- RIGHT LEG — posterior -->
  <path d="M160 258 Q170 272 174 298 Q176 325 172 345 Q166 355 154 355 L128 355" fill="#F5E6D3" stroke="#8B6914" stroke-width="1.5"/>
  <line x1="148" y1="265" x2="150" y2="355" stroke="#D4B896" stroke-width="0.8" stroke-dasharray="3,2"/>
  <path d="M172 348 Q176 355 172 360 Q164 364 154 362 Q146 358 148 350" fill="#F5E6D3" stroke="#8B6914" stroke-width="1.2"/>
  <path d="M176 345 Q182 355 178 362 Q170 368 160 368 Q150 368 144 362 Q142 355 148 345" fill="#F5E6D3" stroke="#8B6914" stroke-width="1.5"/>
  <path d="M169 352 Q160 356 150 352" fill="none" stroke="#C4A882" stroke-width="0.8"/>
  <path d="M176 360 Q184 378 186 400 Q187 415 180 422 Q172 428 162 425 L144 425" fill="#F5E6D3" stroke="#8B6914" stroke-width="1.5"/>
  <line x1="162" y1="365" x2="164" y2="425" stroke="#D4B896" stroke-width="0.8" stroke-dasharray="3,2"/>
  <path d="M170 380 Q168 395 164 410 Q160 420 156 425" fill="none" stroke="#C4A882" stroke-width="1.2"/>
  <path d="M182 420 Q186 428 180 434 Q172 438 164 436 Q158 432 160 424" fill="#F5E6D3" stroke="#8B6914" stroke-width="1.5"/>
  <path d="M184 428 Q188 436 184 442 Q176 446 168 442 Q160 438 156 430" fill="#F5E6D3" stroke="#8B6914" stroke-width="1.5"/>
  <path d="M184 440 Q178 450 164 450 Q150 448 144 440 Q142 432 148 430" fill="#F5E6D3" stroke="#8B6914" stroke-width="1.2"/>
  <text x="194" y="295" text-anchor="middle" font-size="6" fill="#8B6914" font-family="sans-serif" font-weight="700">R THIGH</text>
  <text x="194" y="375" text-anchor="middle" font-size="6" fill="#8B6914" font-family="sans-serif" font-weight="700">R CALF</text>
  <text x="190" y="430" text-anchor="middle" font-size="6" fill="#8B6914" font-family="sans-serif" font-weight="700">R HEEL</text>

  <!-- SURGICAL SITE MARKING OVERLAYS — posterior zones -->
  <!-- Cervical/posterior neck zone -->
  <rect x="100" y="62" width="40" height="36" fill="#1565C0" fill-opacity="0.06" stroke="#1565C0" stroke-width="0.8" stroke-dasharray="3,2" rx="2"/>
  <!-- Thoracic back zone left -->
  <rect x="60" y="98" width="50" height="95" fill="#1565C0" fill-opacity="0.05" stroke="#1565C0" stroke-width="0.7" stroke-dasharray="2,2" rx="2"/>
  <!-- Thoracic back zone right -->
  <rect x="130" y="98" width="50" height="95" fill="#1565C0" fill-opacity="0.05" stroke="#1565C0" stroke-width="0.7" stroke-dasharray="2,2" rx="2"/>
  <!-- Lumbar zone -->
  <rect x="100" y="155" width="40" height="57" fill="#2E7D32" fill-opacity="0.05" stroke="#2E7D32" stroke-width="0.8" stroke-dasharray="3,2" rx="2"/>
  <!-- Sacral/gluteal zone -->
  <rect x="60" y="210" width="120" height="48" fill="#E65100" fill-opacity="0.05" stroke="#E65100" stroke-width="0.8" stroke-dasharray="3,2" rx="2"/>
  <!-- Left arm zone -->
  <rect x="30" y="98" width="22" height="188" fill="#1565C0" fill-opacity="0.05" stroke="#1565C0" stroke-width="0.7" stroke-dasharray="2,2" rx="2"/>
  <!-- Right arm zone -->
  <rect x="188" y="98" width="22" height="188" fill="#1565C0" fill-opacity="0.05" stroke="#1565C0" stroke-width="0.7" stroke-dasharray="2,2" rx="2"/>
  <!-- Left leg zone -->
  <rect x="58" y="255" width="36" height="175" fill="#1565C0" fill-opacity="0.05" stroke="#1565C0" stroke-width="0.7" stroke-dasharray="2,2" rx="2"/>
  <!-- Right leg zone -->
  <rect x="146" y="255" width="36" height="175" fill="#1565C0" fill-opacity="0.05" stroke="#1565C0" stroke-width="0.7" stroke-dasharray="2,2" rx="2"/>

  <!-- VERTEBRAL LEVEL MARKERS — for surgical reference -->
  <!-- C7 at base of neck -->
  <text x="126" y="83" text-anchor="start" font-size="5" fill="#8B6914" font-family="monospace">C7</text>
  <!-- T4, T7, T10, T12 -->
  <text x="126" y="105" text-anchor="start" font-size="5" fill="#8B6914" font-family="monospace">T4</text>
  <text x="126" y="129" text-anchor="start" font-size="5" fill="#8B6914" font-family="monospace">T7</text>
  <text x="126" y="153" text-anchor="start" font-size="5" fill="#8B6914" font-family="monospace">T12</text>
  <!-- L1, L3, L5 -->
  <text x="126" y="167" text-anchor="start" font-size="5" fill="#8B6914" font-family="monospace">L1</text>
  <text x="126" y="188" text-anchor="start" font-size="5" fill="#8B6914" font-family="monospace">L3</text>
  <text x="126" y="207" text-anchor="start" font-size="5" fill="#8B6914" font-family="monospace">L5</text>
  <!-- S1 -->
  <text x="126" y="223" text-anchor="start" font-size="5" fill="#8B6914" font-family="monospace">S1</text>

  <!-- VIEW LABEL -->
  <text x="120" y="14" text-anchor="middle" font-size="10" fill="#2c1453" font-family="sans-serif" font-weight="800" letter-spacing="1">POSTERIOR VIEW</text>

  <!-- LEFT / RIGHT markers -->
  <text x="22" y="230" text-anchor="middle" font-size="11" fill="#6a1b9a" font-family="sans-serif" font-weight="800">L</text>
  <text x="218" y="230" text-anchor="middle" font-size="11" fill="#6a1b9a" font-family="sans-serif" font-weight="800">R</text>

  <!-- INSTRUCTION TEXT -->
  <text x="120" y="460" text-anchor="middle" font-size="7" fill="#5a6a7a" font-family="sans-serif" font-style="italic">Circle operative site · Label L or R · Mark vertebral level (C7–S1) · Arrow for incision direction</text>

  <!-- GRIDLINES — subtle for surgical documentation -->
  <line x1="120" y1="16" x2="120" y2="455" stroke="#D4B896" stroke-width="0.4" stroke-dasharray="1,4"/>
  <line x1="20" y1="230" x2="220" y2="230" stroke="#D4B896" stroke-width="0.4" stroke-dasharray="1,4"/>
</svg>
